<?xml version="1.0" encoding="iso-8859-1"?>
<!-- Generator: Adobe Illustrator 19.0.0, SVG Export Plug-In . SVG Version: 6.00 Build 0)  -->
<svg version="1.1" id="Layer_1" xmlns="http://www.w3.org/2000/svg" xmlns:xlink="http://www.w3.org/1999/xlink" x="0px" y="0px"
	 viewBox="0 0 512 512" style="enable-background:new 0 0 512 512;" xml:space="preserve">
<path style="fill:#F4B2B0;" d="M256,498.495L256,498.495c-22.095,0-40.006-17.911-40.006-40.006v-66.013l-87.047-79.537h254.104
	l-87.047,79.537v66.013C296.006,480.584,278.095,498.495,256,498.495z"/>
<g>
	<path style="fill:#B3404A;" d="M256,512c-29.506,0-53.511-24.004-53.511-53.511v-60.06l-82.651-75.52
		c-4.114-3.76-5.496-9.66-3.48-14.855c2.016-5.195,7.017-8.619,12.59-8.619h254.104c5.573,0,10.574,3.423,12.59,8.619
		s0.633,11.095-3.48,14.855l-82.651,75.52v60.06C309.511,487.994,285.506,512,256,512z M163.747,326.444l61.355,56.062
		c2.799,2.559,4.394,6.177,4.394,9.969v66.013c0,14.613,11.888,26.501,26.501,26.501c14.613,0,26.501-11.888,26.501-26.501v-66.013
		c0-3.793,1.595-7.411,4.394-9.969l61.355-56.062H163.747z"/>
	<path style="fill:#B3404A;" d="M128.577,325.383c-4.293,0-8.717-1.869-11.545-4.879c-33.162-35.412-51.416-81.618-51.416-130.121
		C65.616,85.406,151.022,0,256,0s190.384,85.406,190.384,190.384c0,20.353-3.198,40.39-9.507,59.553
		c-2.332,7.085-9.965,10.937-17.05,8.605c-7.085-2.332-10.937-9.965-8.605-17.05c5.409-16.434,8.153-33.629,8.153-51.108
		c0-90.085-73.291-163.375-163.375-163.375S92.625,100.299,92.625,190.384c0,40.638,14.931,79.395,42.11,109.472
		c4.361,2.239,7.345,6.782,7.345,12.022C142.082,319.337,136.036,325.383,128.577,325.383z"/>
</g>
<circle style="fill:#F4B2B0;" cx="201.975" cy="196.316" r="39.596"/>
<path style="fill:#B3404A;" d="M201.982,249.412c-29.279,0-53.1-23.821-53.1-53.1s23.821-53.1,53.1-53.1s53.1,23.821,53.1,53.1
	S231.261,249.412,201.982,249.412z M201.982,170.221c-14.386,0-26.091,11.704-26.091,26.091c0,14.386,11.704,26.091,26.091,26.091
	s26.091-11.704,26.091-26.091C228.072,181.926,216.368,170.221,201.982,170.221z"/>
<g>
</g>
<g>
</g>
<g>
</g>
<g>
</g>
<g>
</g>
<g>
</g>
<g>
</g>
<g>
</g>
<g>
</g>
<g>
</g>
<g>
</g>
<g>
</g>
<g>
</g>
<g>
</g>
<g>
</g>
</svg>
